<?xml version="1.0" encoding="UTF-8" standalone="no"?><svg xmlns="http://www.w3.org/2000/svg" xmlns:xlink="http://www.w3.org/1999/xlink" contentScriptType="application/ecmascript" contentStyleType="text/css" height="128px" preserveAspectRatio="none" style="width:486px;height:128px;" version="1.1" viewBox="0 0 486 128" width="486px" zoomAndPan="magnify"><defs><filter height="300%" id="f14x9mxpaexihr" width="300%" x="-1" y="-1"><feGaussianBlur result="blurOut" stdDeviation="2.0"/><feColorMatrix in="blurOut" result="blurOut2" type="matrix" values="0 0 0 0 0 0 0 0 0 0 0 0 0 0 0 0 0 0 .4 0"/><feOffset dx="4.0" dy="4.0" in="blurOut2" result="blurOut3"/><feBlend in="SourceGraphic" in2="blurOut3" mode="normal"/></filter></defs><g><!--cluster Client--><rect fill="#FFFFFF" filter="url(#f14x9mxpaexihr)" height="87" style="stroke: #000000; stroke-width: 1.5;" width="264" x="90" y="24"/><path d="M145,25 L145,33.2969 L135,43.2969 L90,43.2969 " fill="none" style="stroke: #000000; stroke-width: 1.5;"/><text fill="#000000" font-family="sans-serif" font-size="14" font-weight="bold" lengthAdjust="spacingAndGlyphs" textLength="45" x="93" y="37.9951">Client</text><!--entity client--><rect fill="#FEFECE" filter="url(#f14x9mxpaexihr)" height="36.2969" style="stroke: #A80036; stroke-width: 1.5;" width="57" x="106.5" y="59"/><rect fill="#FEFECE" height="5" style="stroke: #A80036; stroke-width: 1.5;" width="10" x="101.5" y="64"/><rect fill="#FEFECE" height="5" style="stroke: #A80036; stroke-width: 1.5;" width="10" x="101.5" y="85.2969"/><text fill="#000000" font-family="sans-serif" font-size="14" lengthAdjust="spacingAndGlyphs" textLength="37" x="116.5" y="81.9951">client</text><path d="M198.5,64.5 L198.5,89.6328 L337.5,89.6328 L337.5,74.5 L327.5,64.5 L198.5,64.5 " fill="#FBFB77" filter="url(#f14x9mxpaexihr)" style="stroke: #A80036; stroke-width: 1.0;"/><path d="M327.5,64.5 L327.5,74.5 L337.5,74.5 L327.5,64.5 " fill="#FBFB77" style="stroke: #A80036; stroke-width: 1.0;"/><text fill="#000000" font-family="sans-serif" font-size="13" lengthAdjust="spacingAndGlyphs" textLength="118" x="204.5" y="81.5669">Mountebank proxy</text><!--entity User--><ellipse cx="22" cy="45.5" fill="#FEFECE" filter="url(#f14x9mxpaexihr)" rx="8" ry="8" style="stroke: #A80036; stroke-width: 2.0;"/><path d="M22,53.5 L22,80.5 M9,61.5 L35,61.5 M22,80.5 L9,95.5 M22,80.5 L35,95.5 " fill="none" filter="url(#f14x9mxpaexihr)" style="stroke: #A80036; stroke-width: 2.0;"/><text fill="#000000" font-family="sans-serif" font-size="14" lengthAdjust="spacingAndGlyphs" textLength="32" x="6" y="115.4951">User</text><!--entity Server--><path d="M409,66 C409,63 411,61 414,61 C417,61 419,63 419,66 C419,63 421,61 424,61 C427,61 429,63 429,66 C429,63 431,61 434,61 C437,61 439,63 439,66 C439,63 441,61 444,61 C447,61 449,63 449,66 C449,63 451,61 454,61 C457,61 459,63 459,66 C459,63 461,61 464,61 C467,61 469,63 469,66 C472,66 474,68 474,71 C474,74 472,76 469,76 C472,76 474,78 474,81 C474,84 472,86 469,86 C469,89 466,91 464,91 C461,91 459,89 459,86 C459,89 456,91 454,91 C451,91 449,89 449,86 C449,89 446,91 444,91 C441,91 439,89 439,86 C439,89 436,91 434,91 C431,91 429,89 429,86 C429,89 426,91 424,91 C421,91 419,89 419,86 C419,89 416,91 414,91 C411,91 409,89 409,86 C406,86 404,84 404,81 C404,78 406,76 409,76 C406,76 404,74 404,71 C404,68 406,66 409,66 " fill="#ADD8E6" filter="url(#f14x9mxpaexihr)" style="stroke: #000000; stroke-width: 1.5;"/><text fill="#000000" font-family="sans-serif" font-size="14" lengthAdjust="spacingAndGlyphs" textLength="44" x="416" y="81.9951">Server</text><!--link User to client--><path d="M38.1901,77 C54.5052,77 80.1771,77 100.9862,77 " fill="none" id="User-client" style="stroke: #A80036; stroke-width: 1.0;"/><polygon fill="#A80036" points="106.163,77,97.163,73,101.163,77,97.163,81,106.163,77" style="stroke: #A80036; stroke-width: 1.0;"/><text fill="#000000" font-family="sans-serif" font-size="13" lengthAdjust="spacingAndGlyphs" textLength="0" x="88.25" y="70.0669"/><!--link client to proxy--><path d="M163.574,77 C173.416,77 183.258,77 193.1,77 " fill="none" id="client-proxy" style="stroke: #A80036; stroke-width: 1.0; stroke-dasharray: 7.0,7.0;"/><polygon fill="#A80036" points="198.247,77,189.247,73,193.247,77,189.247,81,198.247,77" style="stroke: #A80036; stroke-width: 1.0;"/><!--link proxy to Server--><path d="M337.636,77 C359.26,77 382.257,77 400.774,77 " fill="none" id="proxy-Server" style="stroke: #A80036; stroke-width: 1.0; stroke-dasharray: 7.0,7.0;"/><polygon fill="#A80036" points="405.873,77,396.873,73,400.873,77,396.873,81,405.873,77" style="stroke: #A80036; stroke-width: 1.0;"/><text fill="#000000" font-family="sans-serif" font-size="13" lengthAdjust="spacingAndGlyphs" textLength="0" x="387.75" y="70.0669"/><!--
@startuml
actor :User:
cloud Server #LightBlue


frame Client {
    User -> [client] :"        "
    note "Mountebank proxy" as proxy
}

(client) .right.> proxy
proxy .right.> (Server) :"        "
@enduml

PlantUML version 1.2019.00(Sun Jan 13 15:46:42 UTC 2019)
(GPL source distribution)
Java Runtime: Java(TM) SE Runtime Environment
JVM: Java HotSpot(TM) 64-Bit Server VM
Java Version: 1.7.0_25-b15
Operating System: Linux
Default Encoding: UTF-8
Language: en
Country: US
--></g></svg>