<?xml version="1.0" encoding="UTF-8" standalone="no"?><svg xmlns="http://www.w3.org/2000/svg" xmlns:xlink="http://www.w3.org/1999/xlink" contentScriptType="application/ecmascript" contentStyleType="text/css" height="405px" preserveAspectRatio="none" style="width:520px;height:405px;" version="1.1" viewBox="0 0 520 405" width="520px" zoomAndPan="magnify"><defs><filter height="300%" id="f1nbe2v4nycqku" width="300%" x="-1" y="-1"><feGaussianBlur result="blurOut" stdDeviation="2.0"/><feColorMatrix in="blurOut" result="blurOut2" type="matrix" values="0 0 0 0 0 0 0 0 0 0 0 0 0 0 0 0 0 0 .4 0"/><feOffset dx="4.0" dy="4.0" in="blurOut2" result="blurOut3"/><feBlend in="SourceGraphic" in2="blurOut3" mode="normal"/></filter></defs><g><!--cluster Mountebank--><rect fill="#FFFFFF" filter="url(#f1nbe2v4nycqku)" height="370" style="stroke: #000000; stroke-width: 1.5;" width="337" x="57" y="24"/><path d="M164,25 L164,33.2969 L154,43.2969 L57,43.2969 " fill="none" style="stroke: #000000; stroke-width: 1.5;"/><text fill="#000000" font-family="sans-serif" font-size="14" font-weight="bold" lengthAdjust="spacingAndGlyphs" textLength="97" x="60" y="37.9951">Mountebank</text><!--entity mountebank--><rect fill="#FEFECE" filter="url(#f1nbe2v4nycqku)" height="46.2969" style="stroke: #A80036; stroke-width: 1.5;" width="152" x="73" y="67.5"/><rect fill="#FEFECE" height="10" style="stroke: #A80036; stroke-width: 1.5;" width="15" x="205" y="72.5"/><rect fill="#FEFECE" height="2" style="stroke: #A80036; stroke-width: 1.5;" width="4" x="203" y="74.5"/><rect fill="#FEFECE" height="2" style="stroke: #A80036; stroke-width: 1.5;" width="4" x="203" y="78.5"/><text fill="#000000" font-family="sans-serif" font-size="14" lengthAdjust="spacingAndGlyphs" textLength="112" x="88" y="100.4951">Mountebank API</text><!--entity imposter1--><rect fill="#FEFECE" filter="url(#f1nbe2v4nycqku)" height="62.5938" style="stroke: #A80036; stroke-width: 1.5;" width="118" x="260" y="59"/><rect fill="#FEFECE" height="10" style="stroke: #A80036; stroke-width: 1.5;" width="15" x="358" y="64"/><rect fill="#FEFECE" height="2" style="stroke: #A80036; stroke-width: 1.5;" width="4" x="356" y="66"/><rect fill="#FEFECE" height="2" style="stroke: #A80036; stroke-width: 1.5;" width="4" x="356" y="70"/><text fill="#000000" font-family="sans-serif" font-size="14" lengthAdjust="spacingAndGlyphs" textLength="61" x="275" y="91.9951">imposter</text><text fill="#000000" font-family="sans-serif" font-size="14" lengthAdjust="spacingAndGlyphs" textLength="78" x="275" y="108.292">HTTP:8000</text><!--entity imposter2--><rect fill="#FEFECE" filter="url(#f1nbe2v4nycqku)" height="62.5938" style="stroke: #A80036; stroke-width: 1.5;" width="109" x="243.5" y="192"/><rect fill="#FEFECE" height="10" style="stroke: #A80036; stroke-width: 1.5;" width="15" x="332.5" y="197"/><rect fill="#FEFECE" height="2" style="stroke: #A80036; stroke-width: 1.5;" width="4" x="330.5" y="199"/><rect fill="#FEFECE" height="2" style="stroke: #A80036; stroke-width: 1.5;" width="4" x="330.5" y="203"/><text fill="#000000" font-family="sans-serif" font-size="14" lengthAdjust="spacingAndGlyphs" textLength="61" x="258.5" y="224.9951">imposter</text><text fill="#000000" font-family="sans-serif" font-size="14" lengthAdjust="spacingAndGlyphs" textLength="69" x="258.5" y="241.292">TCP:5555</text><!--entity imposter3--><rect fill="#FEFECE" filter="url(#f1nbe2v4nycqku)" height="62.5938" style="stroke: #A80036; stroke-width: 1.5;" width="111" x="195.5" y="315"/><rect fill="#FEFECE" height="10" style="stroke: #A80036; stroke-width: 1.5;" width="15" x="286.5" y="320"/><rect fill="#FEFECE" height="2" style="stroke: #A80036; stroke-width: 1.5;" width="4" x="284.5" y="322"/><rect fill="#FEFECE" height="2" style="stroke: #A80036; stroke-width: 1.5;" width="4" x="284.5" y="326"/><text fill="#000000" font-family="sans-serif" font-size="14" lengthAdjust="spacingAndGlyphs" textLength="61" x="210.5" y="347.9951">imposter</text><text fill="#000000" font-family="sans-serif" font-size="14" lengthAdjust="spacingAndGlyphs" textLength="71" x="210.5" y="364.292">SMTP:465</text><!--entity User--><ellipse cx="22" cy="59" fill="#FEFECE" filter="url(#f1nbe2v4nycqku)" rx="8" ry="8" style="stroke: #A80036; stroke-width: 2.0;"/><path d="M22,67 L22,94 M9,75 L35,75 M22,94 L9,109 M22,94 L35,109 " fill="none" filter="url(#f1nbe2v4nycqku)" style="stroke: #A80036; stroke-width: 2.0;"/><text fill="#000000" font-family="sans-serif" font-size="14" lengthAdjust="spacingAndGlyphs" textLength="32" x="6" y="128.9951">User</text><!--entity Application--><path d="M413.5,335.5 C413.5,332.5 415.5,330.5 418.5,330.5 C421.5,330.5 423.5,332.5 423.5,335.5 C423.5,332.5 425.5,330.5 428.5,330.5 C431.5,330.5 433.5,332.5 433.5,335.5 C433.5,332.5 435.5,330.5 438.5,330.5 C441.5,330.5 443.5,332.5 443.5,335.5 C443.5,332.5 445.5,330.5 448.5,330.5 C451.5,330.5 453.5,332.5 453.5,335.5 C453.5,332.5 455.5,330.5 458.5,330.5 C461.5,330.5 463.5,332.5 463.5,335.5 C463.5,332.5 465.5,330.5 468.5,330.5 C471.5,330.5 473.5,332.5 473.5,335.5 C473.5,332.5 475.5,330.5 478.5,330.5 C481.5,330.5 483.5,332.5 483.5,335.5 C483.5,332.5 485.5,330.5 488.5,330.5 C491.5,330.5 493.5,332.5 493.5,335.5 C493.5,332.5 495.5,330.5 498.5,330.5 C501.5,330.5 503.5,332.5 503.5,335.5 C506.5,335.5 508.5,337.5 508.5,340.5 C508.5,343.5 506.5,345.5 503.5,345.5 C506.5,345.5 508.5,347.5 508.5,350.5 C508.5,353.5 506.5,355.5 503.5,355.5 C503.5,358.5 500.5,360.5 498.5,360.5 C495.5,360.5 493.5,358.5 493.5,355.5 C493.5,358.5 490.5,360.5 488.5,360.5 C485.5,360.5 483.5,358.5 483.5,355.5 C483.5,358.5 480.5,360.5 478.5,360.5 C475.5,360.5 473.5,358.5 473.5,355.5 C473.5,358.5 470.5,360.5 468.5,360.5 C465.5,360.5 463.5,358.5 463.5,355.5 C463.5,358.5 460.5,360.5 458.5,360.5 C455.5,360.5 453.5,358.5 453.5,355.5 C453.5,358.5 450.5,360.5 448.5,360.5 C445.5,360.5 443.5,358.5 443.5,355.5 C443.5,358.5 440.5,360.5 438.5,360.5 C435.5,360.5 433.5,358.5 433.5,355.5 C433.5,358.5 430.5,360.5 428.5,360.5 C425.5,360.5 423.5,358.5 423.5,355.5 C423.5,358.5 420.5,360.5 418.5,360.5 C415.5,360.5 413.5,358.5 413.5,355.5 C410.5,355.5 408.5,353.5 408.5,350.5 C408.5,347.5 410.5,345.5 413.5,345.5 C410.5,345.5 408.5,343.5 408.5,340.5 C408.5,337.5 410.5,335.5 413.5,335.5 " fill="#ADD8E6" filter="url(#f1nbe2v4nycqku)" style="stroke: #000000; stroke-width: 1.5;"/><text fill="#000000" font-family="sans-serif" font-size="14" lengthAdjust="spacingAndGlyphs" textLength="75" x="420.5" y="351.4951">Application</text><!--link User to mountebank--><path d="M38.3711,90.5 C48.1844,90.5 57.9976,90.5 67.8109,90.5 " fill="none" id="User-mountebank" style="stroke: #A80036; stroke-width: 1.0;"/><polygon fill="#A80036" points="72.9426,90.5,63.9426,86.5,67.9426,90.5,63.9426,94.5,72.9426,90.5" style="stroke: #A80036; stroke-width: 1.0;"/><!--link mountebank to imposter1--><path d="M225.035,90.5 C234.933,90.5 244.831,90.5 254.729,90.5 " fill="none" id="mountebank-imposter1" style="stroke: #A80036; stroke-width: 1.0;"/><polygon fill="#A80036" points="259.905,90.5,250.905,86.5,254.905,90.5,250.905,94.5,259.905,90.5" style="stroke: #A80036; stroke-width: 1.0;"/><!--link mountebank to imposter2--><path d="M174.276,113.722 C197.542,134.178 232.401,164.826 259.194,188.382 " fill="none" id="mountebank-imposter2" style="stroke: #A80036; stroke-width: 1.0;"/><polygon fill="#A80036" points="263.087,191.804,258.9699,182.8569,259.3323,188.5022,253.687,188.8645,263.087,191.804" style="stroke: #A80036; stroke-width: 1.0;"/><!--link mountebank to imposter3--><path d="M157.873,113.597 C175.564,157.649 215.357,256.741 236.75,310.0158 " fill="none" id="mountebank-imposter3" style="stroke: #A80036; stroke-width: 1.0;"/><polygon fill="#A80036" points="238.636,314.7115,238.9928,304.8691,236.7722,310.0719,231.5694,307.8513,238.636,314.7115" style="stroke: #A80036; stroke-width: 1.0;"/><!--link imposter1 to Application--><path d="M338.251,126.678 C368.488,181.93 425.989,287.005 448.565,328.2599 " fill="none" id="imposter1-Application" style="stroke: #A80036; stroke-width: 1.0;"/><polygon fill="#A80036" points="335.767,122.138,336.581,131.9532,338.1684,126.5236,343.5979,128.111,335.767,122.138" style="stroke: #A80036; stroke-width: 1.0;"/><!--link imposter2 to Application--><path d="M342.392,258.072 C372.619,280.93 411.365,310.2323 435.436,328.4363 " fill="none" id="imposter2-Application" style="stroke: #A80036; stroke-width: 1.0;"/><polygon fill="#A80036" points="338.375,255.033,343.1401,263.6524,342.3628,258.0492,347.966,257.2719,338.375,255.033" style="stroke: #A80036; stroke-width: 1.0;"/><!--link imposter3 to Application--><path d="M312.057,346.5 C344.855,346.5 377.654,346.5 410.452,346.5 " fill="none" id="imposter3-Application" style="stroke: #A80036; stroke-width: 1.0;"/><polygon fill="#A80036" points="306.793,346.5,315.793,350.5,311.793,346.5,315.793,342.5,306.793,346.5" style="stroke: #A80036; stroke-width: 1.0;"/><!--
@startuml
actor :User:
cloud Application #LightBlue

frame "Mountebank" {
    component mountebank [
        Mountebank API
    ]
    
    component imposter1 [
        imposter
        HTTP:8000
    ]
    
    component imposter2 [
        imposter
        TCP:5555
    ]
    
    component imposter3 [
        imposter
        SMTP:465
    ]

    User -> [mountebank]
    [mountebank] -> [imposter1]
    [mountebank] - -> [imposter2]
    [mountebank] - - -> [imposter3]
}

[imposter1] <- [Application]
[imposter2] <- [Application]
[imposter3] <- [Application]
@enduml

PlantUML version 1.2019.00(Sun Jan 13 15:46:42 UTC 2019)
(GPL source distribution)
Java Runtime: Java(TM) SE Runtime Environment
JVM: Java HotSpot(TM) 64-Bit Server VM
Java Version: 1.7.0_25-b15
Operating System: Linux
Default Encoding: UTF-8
Language: en
Country: US
--></g></svg>