<?xml version="1.0" encoding="UTF-8" standalone="no"?><svg xmlns="http://www.w3.org/2000/svg" xmlns:xlink="http://www.w3.org/1999/xlink" contentScriptType="application/ecmascript" contentStyleType="text/css" height="683px" preserveAspectRatio="none" style="width:340px;height:683px;" version="1.1" viewBox="0 0 340 683" width="340px" zoomAndPan="magnify"><defs><filter height="300%" id="f1r7hnr7u1zdvc" width="300%" x="-1" y="-1"><feGaussianBlur result="blurOut" stdDeviation="2.0"/><feColorMatrix in="blurOut" result="blurOut2" type="matrix" values="0 0 0 0 0 0 0 0 0 0 0 0 0 0 0 0 0 0 .4 0"/><feOffset dx="4.0" dy="4.0" in="blurOut2" result="blurOut3"/><feBlend in="SourceGraphic" in2="blurOut3" mode="normal"/></filter></defs><g><ellipse cx="155" cy="20" fill="#000000" filter="url(#f1r7hnr7u1zdvc)" rx="10" ry="10" style="stroke: none; stroke-width: 1.0;"/><path d="M10,54.418 L10,79.5508 A0,0 0 0 0 10,79.5508 L87,79.5508 A0,0 0 0 0 87,79.5508 L87,72.418 L107,66.9844 L87,64.418 L87,64.418 L77,54.418 L10,54.418 A0,0 0 0 0 10,54.418 " fill="#FBFB77" filter="url(#f1r7hnr7u1zdvc)" style="stroke: #A80036; stroke-width: 1.0;"/><path d="M77,54.418 L77,64.418 L87,64.418 L77,54.418 " fill="#FBFB77" style="stroke: #A80036; stroke-width: 1.0;"/><text fill="#000000" font-family="sans-serif" font-size="13" lengthAdjust="spacingAndGlyphs" textLength="56" x="16" y="71.4849">appStart</text><rect fill="#FEFECE" filter="url(#f1r7hnr7u1zdvc)" height="33.9688" rx="12.5" ry="12.5" style="stroke: #A80036; stroke-width: 1.5;" width="96" x="107" y="50"/><text fill="#000000" font-family="sans-serif" font-size="12" lengthAdjust="spacingAndGlyphs" textLength="76" x="117" y="71.1387">remoteStart</text><polygon fill="#FEFECE" filter="url(#f1r7hnr7u1zdvc)" points="134.5,103.9688,175.5,103.9688,187.5,115.9688,175.5,127.9688,134.5,127.9688,122.5,115.9688,134.5,103.9688" style="stroke: #A80036; stroke-width: 1.5;"/><text fill="#000000" font-family="sans-serif" font-size="11" lengthAdjust="spacingAndGlyphs" textLength="41" x="134.5" y="119.7769">started</text><text fill="#000000" font-family="sans-serif" font-size="11" lengthAdjust="spacingAndGlyphs" textLength="20" x="102.5" y="113.3745">yes</text><text fill="#000000" font-family="sans-serif" font-size="11" lengthAdjust="spacingAndGlyphs" textLength="14" x="187.5" y="113.3745">no</text><rect fill="#FEFECE" filter="url(#f1r7hnr7u1zdvc)" height="33.9688" rx="12.5" ry="12.5" style="stroke: #A80036; stroke-width: 1.5;" width="111" x="37.25" y="137.9688"/><text fill="#000000" font-family="sans-serif" font-size="12" lengthAdjust="spacingAndGlyphs" textLength="91" x="47.25" y="159.1074">403 Forbidden</text><ellipse cx="92.75" cy="201.9375" fill="#FFFFFF" filter="url(#f1r7hnr7u1zdvc)" rx="10" ry="10" style="stroke: #000000; stroke-width: 1.5;"/><line style="stroke: #000000; stroke-width: 2.5;" x1="86.5628" x2="98.9372" y1="195.7503" y2="208.1247"/><line style="stroke: #000000; stroke-width: 2.5;" x1="98.9372" x2="86.5628" y1="195.7503" y2="208.1247"/><rect fill="#FEFECE" filter="url(#f1r7hnr7u1zdvc)" height="33.9688" rx="12.5" ry="12.5" style="stroke: #A80036; stroke-width: 1.5;" width="98" x="168.25" y="137.9688"/><text fill="#000000" font-family="sans-serif" font-size="12" lengthAdjust="spacingAndGlyphs" textLength="78" x="178.25" y="159.1074">201 Created</text><path d="M13,284.7578 L13,309.8906 A0,0 0 0 0 13,309.8906 L88,309.8906 A0,0 0 0 0 88,309.8906 L88,302.7578 L108,297.3242 L88,294.7578 L88,294.7578 L78,284.7578 L13,284.7578 A0,0 0 0 0 13,284.7578 " fill="#FBFB77" filter="url(#f1r7hnr7u1zdvc)" style="stroke: #A80036; stroke-width: 1.0;"/><path d="M78,284.7578 L78,294.7578 L88,294.7578 L78,284.7578 " fill="#FBFB77" style="stroke: #A80036; stroke-width: 1.0;"/><text fill="#000000" font-family="sans-serif" font-size="13" lengthAdjust="spacingAndGlyphs" textLength="54" x="19" y="301.8247">appStop</text><rect fill="#FEFECE" filter="url(#f1r7hnr7u1zdvc)" height="33.9688" rx="12.5" ry="12.5" style="stroke: #A80036; stroke-width: 1.5;" width="94" x="108" y="280.3398"/><text fill="#000000" font-family="sans-serif" font-size="12" lengthAdjust="spacingAndGlyphs" textLength="74" x="118" y="301.4785">remoteStop</text><polygon fill="#FEFECE" filter="url(#f1r7hnr7u1zdvc)" points="134,231.9375,176,231.9375,188,243.9375,176,255.9375,134,255.9375,122,243.9375,134,231.9375" style="stroke: #A80036; stroke-width: 1.5;"/><text fill="#000000" font-family="sans-serif" font-size="11" lengthAdjust="spacingAndGlyphs" textLength="20" x="159" y="266.1479">yes</text><text fill="#000000" font-family="sans-serif" font-size="11" lengthAdjust="spacingAndGlyphs" textLength="42" x="134" y="247.7456">lifetime</text><text fill="#000000" font-family="sans-serif" font-size="11" lengthAdjust="spacingAndGlyphs" textLength="14" x="188" y="241.3433">no</text><polygon fill="#FEFECE" filter="url(#f1r7hnr7u1zdvc)" points="155,334.3086,167,346.3086,155,358.3086,143,346.3086,155,334.3086" style="stroke: #A80036; stroke-width: 1.5;"/><polygon fill="#FEFECE" filter="url(#f1r7hnr7u1zdvc)" points="132,378.3086,178,378.3086,190,390.3086,178,402.3086,132,402.3086,120,390.3086,132,378.3086" style="stroke: #A80036; stroke-width: 1.5;"/><text fill="#000000" font-family="sans-serif" font-size="11" lengthAdjust="spacingAndGlyphs" textLength="46" x="132" y="394.1167">stopped</text><text fill="#000000" font-family="sans-serif" font-size="11" lengthAdjust="spacingAndGlyphs" textLength="20" x="100" y="387.7144">yes</text><text fill="#000000" font-family="sans-serif" font-size="11" lengthAdjust="spacingAndGlyphs" textLength="14" x="190" y="387.7144">no</text><rect fill="#FEFECE" filter="url(#f1r7hnr7u1zdvc)" height="33.9688" rx="12.5" ry="12.5" style="stroke: #A80036; stroke-width: 1.5;" width="113" x="44.25" y="412.3086"/><text fill="#000000" font-family="sans-serif" font-size="12" lengthAdjust="spacingAndGlyphs" textLength="93" x="54.25" y="433.4473">404 Not Found</text><ellipse cx="100.75" cy="476.2773" fill="#FFFFFF" filter="url(#f1r7hnr7u1zdvc)" rx="10" ry="10" style="stroke: #000000; stroke-width: 1.5;"/><line style="stroke: #000000; stroke-width: 2.5;" x1="94.5628" x2="106.9372" y1="470.0902" y2="482.4645"/><line style="stroke: #000000; stroke-width: 2.5;" x1="106.9372" x2="94.5628" y1="470.0902" y2="482.4645"/><rect fill="#FEFECE" filter="url(#f1r7hnr7u1zdvc)" height="33.9688" rx="12.5" ry="12.5" style="stroke: #A80036; stroke-width: 1.5;" width="64" x="177.25" y="412.3086"/><text fill="#000000" font-family="sans-serif" font-size="12" lengthAdjust="spacingAndGlyphs" textLength="44" x="187.25" y="433.4473">200 OK</text><path d="M225,559.0977 L225,567.6641 L205,571.6641 L225,575.6641 L225,584.2305 A0,0 0 0 0 225,584.2305 L304,584.2305 A0,0 0 0 0 304,584.2305 L304,569.0977 L294,559.0977 L225,559.0977 A0,0 0 0 0 225,559.0977 " fill="#FBFB77" filter="url(#f1r7hnr7u1zdvc)" style="stroke: #A80036; stroke-width: 1.0;"/><path d="M294,559.0977 L294,569.0977 L304,569.0977 L294,559.0977 " fill="#FBFB77" style="stroke: #A80036; stroke-width: 1.0;"/><text fill="#000000" font-family="sans-serif" font-size="13" lengthAdjust="spacingAndGlyphs" textLength="58" x="231" y="576.1646">smtpMail</text><rect fill="#FEFECE" filter="url(#f1r7hnr7u1zdvc)" height="33.9688" rx="12.5" ry="12.5" style="stroke: #A80036; stroke-width: 1.5;" width="100" x="105" y="554.6797"/><text fill="#000000" font-family="sans-serif" font-size="12" lengthAdjust="spacingAndGlyphs" textLength="80" x="115" y="575.8184">appSendMail</text><polygon fill="#FEFECE" filter="url(#f1r7hnr7u1zdvc)" points="130,506.2773,180,506.2773,192,518.2773,180,530.2773,130,530.2773,118,518.2773,130,506.2773" style="stroke: #A80036; stroke-width: 1.5;"/><text fill="#000000" font-family="sans-serif" font-size="11" lengthAdjust="spacingAndGlyphs" textLength="20" x="159" y="540.4878">yes</text><text fill="#000000" font-family="sans-serif" font-size="11" lengthAdjust="spacingAndGlyphs" textLength="50" x="130" y="522.0854">sendMail</text><text fill="#000000" font-family="sans-serif" font-size="11" lengthAdjust="spacingAndGlyphs" textLength="14" x="192" y="515.6831">no</text><polygon fill="#FEFECE" filter="url(#f1r7hnr7u1zdvc)" points="155,608.6484,167,620.6484,155,632.6484,143,620.6484,155,608.6484" style="stroke: #A80036; stroke-width: 1.5;"/><ellipse cx="155" cy="662.6484" fill="#FFFFFF" filter="url(#f1r7hnr7u1zdvc)" rx="10" ry="10" style="stroke: #000000; stroke-width: 1.5;"/><line style="stroke: #000000; stroke-width: 2.5;" x1="148.8128" x2="161.1872" y1="656.4613" y2="668.8356"/><line style="stroke: #000000; stroke-width: 2.5;" x1="161.1872" x2="148.8128" y1="656.4613" y2="668.8356"/><line style="stroke: #A80036; stroke-width: 1.5;" x1="155" x2="155" y1="30" y2="50"/><polygon fill="#A80036" points="151,40,155,50,159,40,155,44" style="stroke: #A80036; stroke-width: 1.0;"/><line style="stroke: #A80036; stroke-width: 1.5;" x1="92.75" x2="92.75" y1="171.9375" y2="191.9375"/><polygon fill="#A80036" points="88.75,181.9375,92.75,191.9375,96.75,181.9375,92.75,185.9375" style="stroke: #A80036; stroke-width: 1.0;"/><line style="stroke: #A80036; stroke-width: 1.5;" x1="122.5" x2="92.75" y1="115.9688" y2="115.9688"/><line style="stroke: #A80036; stroke-width: 1.5;" x1="92.75" x2="92.75" y1="115.9688" y2="137.9688"/><polygon fill="#A80036" points="88.75,127.9688,92.75,137.9688,96.75,127.9688,92.75,131.9688" style="stroke: #A80036; stroke-width: 1.0;"/><line style="stroke: #A80036; stroke-width: 1.5;" x1="187.5" x2="217.25" y1="115.9688" y2="115.9688"/><line style="stroke: #A80036; stroke-width: 1.5;" x1="217.25" x2="217.25" y1="115.9688" y2="137.9688"/><polygon fill="#A80036" points="213.25,127.9688,217.25,137.9688,221.25,127.9688,217.25,131.9688" style="stroke: #A80036; stroke-width: 1.0;"/><line style="stroke: #A80036; stroke-width: 1.5;" x1="217.25" x2="217.25" y1="171.9375" y2="216.9375"/><line style="stroke: #A80036; stroke-width: 1.5;" x1="217.25" x2="155" y1="216.9375" y2="216.9375"/><line style="stroke: #A80036; stroke-width: 1.5;" x1="155" x2="155" y1="216.9375" y2="231.9375"/><polygon fill="#A80036" points="151,221.9375,155,231.9375,159,221.9375,155,225.9375" style="stroke: #A80036; stroke-width: 1.0;"/><line style="stroke: #A80036; stroke-width: 1.5;" x1="155" x2="155" y1="83.9688" y2="103.9688"/><polygon fill="#A80036" points="151,93.9688,155,103.9688,159,93.9688,155,97.9688" style="stroke: #A80036; stroke-width: 1.0;"/><line style="stroke: #A80036; stroke-width: 1.5;" x1="155" x2="155" y1="255.9375" y2="280.3398"/><polygon fill="#A80036" points="151,270.3398,155,280.3398,159,270.3398,155,274.3398" style="stroke: #A80036; stroke-width: 1.0;"/><line style="stroke: #A80036; stroke-width: 1.5;" x1="188" x2="212" y1="243.9375" y2="243.9375"/><polygon fill="#A80036" points="208,287.3242,212,297.3242,216,287.3242,212,291.3242" style="stroke: #A80036; stroke-width: 1.5;"/><line style="stroke: #A80036; stroke-width: 1.5;" x1="212" x2="212" y1="243.9375" y2="346.3086"/><line style="stroke: #A80036; stroke-width: 1.5;" x1="212" x2="167" y1="346.3086" y2="346.3086"/><polygon fill="#A80036" points="177,342.3086,167,346.3086,177,350.3086,173,346.3086" style="stroke: #A80036; stroke-width: 1.0;"/><line style="stroke: #A80036; stroke-width: 1.5;" x1="155" x2="155" y1="314.3086" y2="334.3086"/><polygon fill="#A80036" points="151,324.3086,155,334.3086,159,324.3086,155,328.3086" style="stroke: #A80036; stroke-width: 1.0;"/><line style="stroke: #A80036; stroke-width: 1.5;" x1="100.75" x2="100.75" y1="446.2773" y2="466.2773"/><polygon fill="#A80036" points="96.75,456.2773,100.75,466.2773,104.75,456.2773,100.75,460.2773" style="stroke: #A80036; stroke-width: 1.0;"/><line style="stroke: #A80036; stroke-width: 1.5;" x1="120" x2="100.75" y1="390.3086" y2="390.3086"/><line style="stroke: #A80036; stroke-width: 1.5;" x1="100.75" x2="100.75" y1="390.3086" y2="412.3086"/><polygon fill="#A80036" points="96.75,402.3086,100.75,412.3086,104.75,402.3086,100.75,406.3086" style="stroke: #A80036; stroke-width: 1.0;"/><line style="stroke: #A80036; stroke-width: 1.5;" x1="190" x2="209.25" y1="390.3086" y2="390.3086"/><line style="stroke: #A80036; stroke-width: 1.5;" x1="209.25" x2="209.25" y1="390.3086" y2="412.3086"/><polygon fill="#A80036" points="205.25,402.3086,209.25,412.3086,213.25,402.3086,209.25,406.3086" style="stroke: #A80036; stroke-width: 1.0;"/><line style="stroke: #A80036; stroke-width: 1.5;" x1="209.25" x2="209.25" y1="446.2773" y2="491.2773"/><line style="stroke: #A80036; stroke-width: 1.5;" x1="209.25" x2="155" y1="491.2773" y2="491.2773"/><line style="stroke: #A80036; stroke-width: 1.5;" x1="155" x2="155" y1="491.2773" y2="506.2773"/><polygon fill="#A80036" points="151,496.2773,155,506.2773,159,496.2773,155,500.2773" style="stroke: #A80036; stroke-width: 1.0;"/><line style="stroke: #A80036; stroke-width: 1.5;" x1="155" x2="155" y1="358.3086" y2="378.3086"/><polygon fill="#A80036" points="151,368.3086,155,378.3086,159,368.3086,155,372.3086" style="stroke: #A80036; stroke-width: 1.0;"/><line style="stroke: #A80036; stroke-width: 1.5;" x1="155" x2="155" y1="530.2773" y2="554.6797"/><polygon fill="#A80036" points="151,544.6797,155,554.6797,159,544.6797,155,548.6797" style="stroke: #A80036; stroke-width: 1.0;"/><line style="stroke: #A80036; stroke-width: 1.5;" x1="192" x2="314" y1="518.2773" y2="518.2773"/><polygon fill="#A80036" points="310,561.6641,314,571.6641,318,561.6641,314,565.6641" style="stroke: #A80036; stroke-width: 1.5;"/><line style="stroke: #A80036; stroke-width: 1.5;" x1="314" x2="314" y1="518.2773" y2="620.6484"/><line style="stroke: #A80036; stroke-width: 1.5;" x1="314" x2="167" y1="620.6484" y2="620.6484"/><polygon fill="#A80036" points="177,616.6484,167,620.6484,177,624.6484,173,620.6484" style="stroke: #A80036; stroke-width: 1.0;"/><line style="stroke: #A80036; stroke-width: 1.5;" x1="155" x2="155" y1="588.6484" y2="608.6484"/><polygon fill="#A80036" points="151,598.6484,155,608.6484,159,598.6484,155,602.6484" style="stroke: #A80036; stroke-width: 1.0;"/><line style="stroke: #A80036; stroke-width: 1.5;" x1="155" x2="155" y1="632.6484" y2="652.6484"/><polygon fill="#A80036" points="151,642.6484,155,652.6484,159,642.6484,155,646.6484" style="stroke: #A80036; stroke-width: 1.0;"/><!--
@startuml
start

:remoteStart;
note
    appStart
end note

if (started) then (yes)
    :403 Forbidden;
    end
else (no)
    :201 Created;
endif

if (lifetime) then (yes)
    :remoteStop;
    note
        appStop
    end note
else (no)
endif

if (stopped) then (yes)
    :404 Not Found;
    end
else (no)
    :200 OK;
endif

if (sendMail) then (yes)
    :appSendMail;
    note right
        smtpMail
    end note
else (no)
endif

end
@enduml

PlantUML version 1.2019.00(Sun Jan 13 15:46:42 UTC 2019)
(GPL source distribution)
Java Runtime: Java(TM) SE Runtime Environment
JVM: Java HotSpot(TM) 64-Bit Server VM
Java Version: 1.7.0_25-b15
Operating System: Linux
Default Encoding: UTF-8
Language: en
Country: US
--></g></svg>