<?xml version="1.0" encoding="UTF-8" standalone="no"?><svg xmlns="http://www.w3.org/2000/svg" xmlns:xlink="http://www.w3.org/1999/xlink" contentScriptType="application/ecmascript" contentStyleType="text/css" height="371px" preserveAspectRatio="none" style="width:584px;height:371px;" version="1.1" viewBox="0 0 584 371" width="584px" zoomAndPan="magnify"><defs><filter height="300%" id="f1ngxae74tv16e" width="300%" x="-1" y="-1"><feGaussianBlur result="blurOut" stdDeviation="2.0"/><feColorMatrix in="blurOut" result="blurOut2" type="matrix" values="0 0 0 0 0 0 0 0 0 0 0 0 0 0 0 0 0 0 .4 0"/><feOffset dx="4.0" dy="4.0" in="blurOut2" result="blurOut3"/><feBlend in="SourceGraphic" in2="blurOut3" mode="normal"/></filter></defs><g><!--cluster Application--><rect fill="#FFFFFF" filter="url(#f1ngxae74tv16e)" height="130" style="stroke: #000000; stroke-width: 1.5;" width="180" x="74" y="24"/><path d="M171,25 L171,33.2969 L161,43.2969 L74,43.2969 " fill="none" style="stroke: #000000; stroke-width: 1.5;"/><text fill="#000000" font-family="sans-serif" font-size="14" font-weight="bold" lengthAdjust="spacingAndGlyphs" textLength="87" x="77" y="37.9951">Application</text><!--cluster Mountebank--><rect fill="#FFFFFF" filter="url(#f1ngxae74tv16e)" height="336" style="stroke: #000000; stroke-width: 1.5;" width="150" x="423" y="24"/><path d="M530,25 L530,33.2969 L520,43.2969 L423,43.2969 " fill="none" style="stroke: #000000; stroke-width: 1.5;"/><text fill="#000000" font-family="sans-serif" font-size="14" font-weight="bold" lengthAdjust="spacingAndGlyphs" textLength="97" x="426" y="37.9951">Mountebank</text><!--entity endpoints--><rect fill="#FEFECE" filter="url(#f1ngxae74tv16e)" height="78.8906" style="stroke: #A80036; stroke-width: 1.5;" width="147" x="90.5" y="59"/><rect fill="#FEFECE" height="10" style="stroke: #A80036; stroke-width: 1.5;" width="15" x="217.5" y="64"/><rect fill="#FEFECE" height="2" style="stroke: #A80036; stroke-width: 1.5;" width="4" x="215.5" y="66"/><rect fill="#FEFECE" height="2" style="stroke: #A80036; stroke-width: 1.5;" width="4" x="215.5" y="70"/><text fill="#000000" font-family="sans-serif" font-size="14" lengthAdjust="spacingAndGlyphs" textLength="71" x="105.5" y="91.9951">/start/{id}</text><text fill="#000000" font-family="sans-serif" font-size="14" lengthAdjust="spacingAndGlyphs" textLength="71" x="105.5" y="108.292">/stop/{id}</text><text fill="#000000" font-family="sans-serif" font-size="14" lengthAdjust="spacingAndGlyphs" textLength="107" x="105.5" y="124.5889">/send-mail/{id}</text><!--entity mountebank--><rect fill="#FEFECE" filter="url(#f1ngxae74tv16e)" height="36.2969" style="stroke: #A80036; stroke-width: 1.5;" width="108" x="442" y="201"/><rect fill="#FEFECE" height="5" style="stroke: #A80036; stroke-width: 1.5;" width="10" x="437" y="206"/><rect fill="#FEFECE" height="5" style="stroke: #A80036; stroke-width: 1.5;" width="10" x="437" y="227.2969"/><text fill="#000000" font-family="sans-serif" font-size="14" lengthAdjust="spacingAndGlyphs" textLength="88" x="452" y="223.9951">mountebank</text><!--entity startStopImposter--><rect fill="#FEFECE" filter="url(#f1ngxae74tv16e)" height="78.8906" style="stroke: #A80036; stroke-width: 1.5;" width="118" x="439" y="59"/><rect fill="#FEFECE" height="10" style="stroke: #A80036; stroke-width: 1.5;" width="15" x="537" y="64"/><rect fill="#FEFECE" height="2" style="stroke: #A80036; stroke-width: 1.5;" width="4" x="535" y="66"/><rect fill="#FEFECE" height="2" style="stroke: #A80036; stroke-width: 1.5;" width="4" x="535" y="70"/><text fill="#000000" font-family="sans-serif" font-size="14" lengthAdjust="spacingAndGlyphs" textLength="78" x="454" y="91.9951">HTTP:9000</text><text fill="#000000" font-family="sans-serif" font-size="14" lengthAdjust="spacingAndGlyphs" textLength="71" x="454" y="108.292">/start/{id}</text><text fill="#000000" font-family="sans-serif" font-size="14" lengthAdjust="spacingAndGlyphs" textLength="71" x="454" y="124.5889">/stop/{id}</text><!--entity mailImposter--><rect fill="#FEFECE" filter="url(#f1ngxae74tv16e)" height="46.2969" style="stroke: #A80036; stroke-width: 1.5;" width="111" x="439.5" y="298"/><rect fill="#FEFECE" height="10" style="stroke: #A80036; stroke-width: 1.5;" width="15" x="530.5" y="303"/><rect fill="#FEFECE" height="2" style="stroke: #A80036; stroke-width: 1.5;" width="4" x="528.5" y="305"/><rect fill="#FEFECE" height="2" style="stroke: #A80036; stroke-width: 1.5;" width="4" x="528.5" y="309"/><text fill="#000000" font-family="sans-serif" font-size="14" lengthAdjust="spacingAndGlyphs" textLength="71" x="454.5" y="330.9951">SMTP:587</text><!--entity User--><ellipse cx="22" cy="67" fill="#FEFECE" filter="url(#f1ngxae74tv16e)" rx="8" ry="8" style="stroke: #A80036; stroke-width: 2.0;"/><path d="M22,75 L22,102 M9,83 L35,83 M22,102 L9,117 M22,102 L35,117 " fill="none" filter="url(#f1ngxae74tv16e)" style="stroke: #A80036; stroke-width: 2.0;"/><text fill="#000000" font-family="sans-serif" font-size="14" lengthAdjust="spacingAndGlyphs" textLength="32" x="6" y="136.9951">User</text><!--link startStopImposter to mountebank--><path d="M497.26,143.336 C496.922,163.375 496.541,185.943 496.287,200.971 " fill="none" id="startStopImposter-mountebank" style="stroke: #A80036; stroke-width: 1.0;"/><polygon fill="#A80036" points="497.345,138.301,493.1938,147.2323,497.2607,143.3003,501.1927,147.3672,497.345,138.301" style="stroke: #A80036; stroke-width: 1.0;"/><!--link mountebank to mailImposter--><path d="M495.826,237.419 C495.674,252.632 495.45,274.974 495.274,292.5842 " fill="none" id="mountebank-mailImposter" style="stroke: #A80036; stroke-width: 1.0;"/><polygon fill="#A80036" points="495.221,297.8843,499.3111,288.9249,495.2711,292.8846,491.3115,288.8446,495.221,297.8843" style="stroke: #A80036; stroke-width: 1.0;"/><!--link User to endpoints--><path d="M38.0132,98.5 C49.947,98.5 67.2211,98.5 85.1709,98.5 " fill="none" id="User-endpoints" style="stroke: #A80036; stroke-width: 1.0;"/><polygon fill="#A80036" points="90.2478,98.5,81.2478,94.5,85.2478,98.5,81.2478,102.5,90.2478,98.5" style="stroke: #A80036; stroke-width: 1.0;"/><text fill="#000000" font-family="sans-serif" font-size="13" lengthAdjust="spacingAndGlyphs" textLength="0" x="72.25" y="91.5669"/><!--link endpoints to startStopImposter--><path d="M242.728,98.5 C300.951,98.5 379.263,98.5 433.731,98.5 " fill="none" id="endpoints-startStopImposter" style="stroke: #A80036; stroke-width: 1.0;"/><polygon fill="#A80036" points="438.927,98.5,429.927,94.5,433.927,98.5,429.927,102.5,438.927,98.5" style="stroke: #A80036; stroke-width: 1.0;"/><polygon fill="#A80036" points="237.711,98.5,246.711,102.5,242.711,98.5,246.711,94.5,237.711,98.5" style="stroke: #A80036; stroke-width: 1.0;"/><text fill="#000000" font-family="sans-serif" font-size="13" lengthAdjust="spacingAndGlyphs" textLength="125" x="275.75" y="91.5669">Start/Stop machine</text><!--link endpoints to mailImposter--><path d="M205.588,138.139 C238.216,167.338 285.567,207.32 331,237 C365.503,259.539 406.932,280.4612 439.518,295.6611 " fill="none" id="endpoints-mailImposter" style="stroke: #A80036; stroke-width: 1.0;"/><polygon fill="#A80036" points="444.26,297.8617,437.7794,290.4454,439.7244,295.7573,434.4124,297.7023,444.26,297.8617" style="stroke: #A80036; stroke-width: 1.0;"/><text fill="#000000" font-family="sans-serif" font-size="13" lengthAdjust="spacingAndGlyphs" textLength="72" x="332" y="223.5669">Send email</text><!--
@startuml
actor :User:

frame Application {
    component endpoints [
        /start/{id}
        /stop/{id}
        /send-mail/{id}
    ]
}

frame Mountebank {
    component mountebank
    
    component startStopImposter [
        HTTP:9000
        /start/{id}
        /stop/{id}
    ]
    
    component mailImposter [
        SMTP:587
    ]
    
    [startStopImposter] <-down- [mountebank]
    [mailImposter] <-up- [mountebank]
}

User -> [endpoints] : "    "
[endpoints] <-> [startStopImposter] : "     Start/Stop machine     "
[endpoints] -> [mailImposter] : "Send email     "
@enduml

PlantUML version 1.2019.00(Sun Jan 13 15:46:42 UTC 2019)
(GPL source distribution)
Java Runtime: Java(TM) SE Runtime Environment
JVM: Java HotSpot(TM) 64-Bit Server VM
Java Version: 1.7.0_25-b15
Operating System: Linux
Default Encoding: UTF-8
Language: en
Country: US
--></g></svg>